<svg xmlns="http://www.w3.org/2000/svg" viewBox="0 0 600 300" width="600" height="300" font-family="inherit" font-size="11"><line x1="58.0" y1="254.0" x2="584.0" y2="254.0" stroke="#dddddd" stroke-width="1"/><text x="50.0" y="258.0" font-size="11" fill="#888888" text-anchor="end">0</text><line x1="58.0" y1="198.0" x2="584.0" y2="198.0" stroke="#dddddd" stroke-width="1"/><text x="50.0" y="202.0" font-size="11" fill="#888888" text-anchor="end">0.25</text><line x1="58.0" y1="142.0" x2="584.0" y2="142.0" stroke="#dddddd" stroke-width="1"/><text x="50.0" y="146.0" font-size="11" fill="#888888" text-anchor="end">0.5</text><line x1="58.0" y1="86.0" x2="584.0" y2="86.0" stroke="#dddddd" stroke-width="1"/><text x="50.0" y="90.0" font-size="11" fill="#888888" text-anchor="end">0.75</text><line x1="58.0" y1="30.0" x2="584.0" y2="30.0" stroke="#dddddd" stroke-width="1"/><text x="50.0" y="34.0" font-size="11" fill="#888888" text-anchor="end">1</text><text x="58.0" y="270.0" font-size="11" fill="#888888" text-anchor="middle">1</text><line x1="58.0" y1="254.0" x2="58.0" y2="258.0" stroke="#888888" stroke-width="1"/><text x="163.2" y="270.0" font-size="11" fill="#888888" text-anchor="middle">2</text><line x1="163.2" y1="254.0" x2="163.2" y2="258.0" stroke="#888888" stroke-width="1"/><text x="268.4" y="270.0" font-size="11" fill="#888888" text-anchor="middle">4</text><line x1="268.4" y1="254.0" x2="268.4" y2="258.0" stroke="#888888" stroke-width="1"/><text x="373.6" y="270.0" font-size="11" fill="#888888" text-anchor="middle">8</text><line x1="373.6" y1="254.0" x2="373.6" y2="258.0" stroke="#888888" stroke-width="1"/><text x="478.8" y="270.0" font-size="11" fill="#888888" text-anchor="middle">16</text><line x1="478.8" y1="254.0" x2="478.8" y2="258.0" stroke="#888888" stroke-width="1"/><text x="584.0" y="270.0" font-size="11" fill="#888888" text-anchor="middle">32</text><line x1="584.0" y1="254.0" x2="584.0" y2="258.0" stroke="#888888" stroke-width="1"/><rect x="58" y="30" width="526" height="224" fill="none" stroke="#222222" stroke-width="1"/><polyline points="58.0,187.4 163.2,145.2 268.4,90.6 373.6,62.1 478.8,46.5 584.0,43.1" fill="none" stroke="#2f6fb2" stroke-width="2"/><circle cx="58.0" cy="187.4" r="3.4" fill="#2f6fb2"/><circle cx="163.2" cy="145.2" r="3.4" fill="#2f6fb2"/><circle cx="268.4" cy="90.6" r="3.4" fill="#2f6fb2"/><circle cx="373.6" cy="62.1" r="3.4" fill="#2f6fb2"/><circle cx="478.8" cy="46.5" r="3.4" fill="#2f6fb2"/><circle cx="584.0" cy="43.1" r="3.4" fill="#2f6fb2"/><polyline points="58.0,207.5 163.2,189.5 268.4,156.6 373.6,119.6 478.8,70.4 584.0,59.4" fill="none" stroke="#c46a1e" stroke-width="2"/><circle cx="58.0" cy="207.5" r="3.4" fill="#c46a1e"/><circle cx="163.2" cy="189.5" r="3.4" fill="#c46a1e"/><circle cx="268.4" cy="156.6" r="3.4" fill="#c46a1e"/><circle cx="373.6" cy="119.6" r="3.4" fill="#c46a1e"/><circle cx="478.8" cy="70.4" r="3.4" fill="#c46a1e"/><circle cx="584.0" cy="59.4" r="3.4" fill="#c46a1e"/><line x1="478.8" y1="46.5" x2="478.8" y2="254.0" stroke="#888888" stroke-width="1" stroke-dasharray="3,3"/><text x="478.8" y="22.0" font-size="11" fill="#888888" text-anchor="middle">K16</text><circle cx="383.0" cy="236.0" r="3.4" fill="#2f6fb2"/><text x="393.0" y="240.0" font-size="11" fill="#222222" text-anchor="start">discovery</text><circle cx="471.0" cy="236.0" r="3.4" fill="#c46a1e"/><text x="481.0" y="240.0" font-size="11" fill="#222222" text-anchor="start">held-out validation</text><text x="321.0" y="292.0" font-size="11" fill="#222222" text-anchor="middle">components transplanted together (ranked top-k)</text><text x="14.0" y="142.0" font-size="11" fill="#222222" text-anchor="middle" transform="rotate(-90 14 142.0)">recovery of monitor effect</text></svg>