<svg xmlns="http://www.w3.org/2000/svg" viewBox="0 0 600 380" width="600" height="380" font-family="inherit" font-size="11"><line x1="160.0" y1="30.0" x2="160.0" y2="336.0" stroke="#dddddd" stroke-width="1"/><text x="160.0" y="351.0" font-size="11" fill="#888888" text-anchor="middle">0</text><line x1="260.0" y1="30.0" x2="260.0" y2="336.0" stroke="#dddddd" stroke-width="1"/><text x="260.0" y="351.0" font-size="11" fill="#888888" text-anchor="middle">0.25</text><line x1="360.0" y1="30.0" x2="360.0" y2="336.0" stroke="#dddddd" stroke-width="1"/><text x="360.0" y="351.0" font-size="11" fill="#888888" text-anchor="middle">0.5</text><line x1="460.0" y1="30.0" x2="460.0" y2="336.0" stroke="#dddddd" stroke-width="1"/><text x="460.0" y="351.0" font-size="11" fill="#888888" text-anchor="middle">0.75</text><line x1="560.0" y1="30.0" x2="560.0" y2="336.0" stroke="#dddddd" stroke-width="1"/><text x="560.0" y="351.0" font-size="11" fill="#888888" text-anchor="middle">1</text><rect x="120" y="30" width="460" height="306" fill="none" stroke="#222222" stroke-width="1"/><line x1="160.0" y1="30.0" x2="160.0" y2="336.0" stroke="#222222" stroke-width="1.2"/><line x1="560.0" y1="30.0" x2="560.0" y2="336.0" stroke="#888888" stroke-width="1" stroke-dasharray="3,3"/><text x="112.0" y="46.8" font-size="11" fill="#222222" text-anchor="end">HTML</text><line x1="216.6" y1="42.8" x2="553.0" y2="42.8" stroke="#dddddd" stroke-width="1.5"/><circle cx="553.0" cy="42.8" r="3.8" fill="#2f6fb2"/><path d="M216.6,39.0 L220.4,42.8 L216.6,46.5 L212.8,42.8 Z" fill="#c46a1e"/><text x="112.0" y="72.2" font-size="11" fill="#222222" text-anchor="end">all-caps</text><line x1="176.7" y1="68.2" x2="525.3" y2="68.2" stroke="#dddddd" stroke-width="1.5"/><circle cx="525.3" cy="68.2" r="3.8" fill="#2f6fb2"/><path d="M176.7,64.5 L180.5,68.2 L176.7,72.0 L172.9,68.2 Z" fill="#c46a1e"/><text x="112.0" y="97.8" font-size="11" fill="#222222" text-anchor="end">biology-focused</text><line x1="192.7" y1="93.8" x2="537.2" y2="93.8" stroke="#dddddd" stroke-width="1.5"/><circle cx="537.2" cy="93.8" r="3.8" fill="#2f6fb2"/><path d="M192.7,90.0 L196.5,93.8 L192.7,97.5 L188.9,93.8 Z" fill="#c46a1e"/><text x="112.0" y="123.2" font-size="11" fill="#222222" text-anchor="end">chemistry-based</text><line x1="191.4" y1="119.2" x2="539.3" y2="119.2" stroke="#dddddd" stroke-width="1.5"/><circle cx="539.3" cy="119.2" r="3.8" fill="#2f6fb2"/><path d="M191.4,115.5 L195.2,119.2 L191.4,123.0 L187.6,119.2 Z" fill="#c46a1e"/><text x="112.0" y="148.8" font-size="11" fill="#222222" text-anchor="end">comforting</text><line x1="203.4" y1="144.8" x2="554.8" y2="144.8" stroke="#dddddd" stroke-width="1.5"/><circle cx="554.8" cy="144.8" r="3.8" fill="#2f6fb2"/><path d="M203.4,140.9 L207.2,144.8 L203.4,148.6 L199.6,144.8 Z" fill="#c46a1e"/><text x="112.0" y="174.2" font-size="11" fill="#222222" text-anchor="end">confused</text><line x1="168.9" y1="170.2" x2="553.8" y2="170.2" stroke="#dddddd" stroke-width="1.5"/><circle cx="553.8" cy="170.2" r="3.8" fill="#2f6fb2"/><path d="M168.9,166.4 L172.7,170.2 L168.9,174.1 L165.1,170.2 Z" fill="#c46a1e"/><text x="112.0" y="199.8" font-size="11" fill="#222222" text-anchor="end">Finnish</text><line x1="204.5" y1="195.8" x2="553.0" y2="195.8" stroke="#dddddd" stroke-width="1.5"/><circle cx="553.0" cy="195.8" r="3.8" fill="#2f6fb2"/><path d="M204.5,191.9 L208.3,195.8 L204.5,199.6 L200.7,195.8 Z" fill="#c46a1e"/><text x="112.0" y="225.2" font-size="11" fill="#222222" text-anchor="end">German</text><line x1="196.9" y1="221.2" x2="546.0" y2="221.2" stroke="#dddddd" stroke-width="1.5"/><circle cx="546.0" cy="221.2" r="3.8" fill="#2f6fb2"/><path d="M196.9,217.4 L200.7,221.2 L196.9,225.1 L193.1,221.2 Z" fill="#c46a1e"/><text x="112.0" y="250.8" font-size="11" fill="#222222" text-anchor="end">jokey</text><line x1="143.6" y1="246.8" x2="497.0" y2="246.8" stroke="#dddddd" stroke-width="1.5"/><circle cx="497.0" cy="246.8" r="3.8" fill="#2f6fb2"/><path d="M143.6,242.9 L147.4,246.8 L143.6,250.6 L139.8,246.8 Z" fill="#c46a1e"/><text x="112.0" y="276.2" font-size="11" fill="#222222" text-anchor="end">literature-focused</text><line x1="189.2" y1="272.2" x2="554.5" y2="272.2" stroke="#dddddd" stroke-width="1.5"/><circle cx="554.5" cy="272.2" r="3.8" fill="#2f6fb2"/><path d="M189.2,268.4 L193.0,272.2 L189.2,276.1 L185.4,272.2 Z" fill="#c46a1e"/><text x="112.0" y="301.8" font-size="11" fill="#222222" text-anchor="end">mathematical</text><line x1="195.8" y1="297.8" x2="534.8" y2="297.8" stroke="#dddddd" stroke-width="1.5"/><circle cx="534.8" cy="297.8" r="3.8" fill="#2f6fb2"/><path d="M195.8,293.9 L199.6,297.8 L195.8,301.6 L192.0,297.8 Z" fill="#c46a1e"/><text x="112.0" y="327.2" font-size="11" fill="#222222" text-anchor="end" font-weight="600">MACRO</text><line x1="189.0" y1="323.2" x2="540.8" y2="323.2" stroke="#dddddd" stroke-width="1.5"/><circle cx="540.8" cy="323.2" r="4.6" fill="#2f6fb2"/><path d="M189.0,318.9 L193.4,323.2 L189.0,327.6 L184.6,323.2 Z" fill="#c46a1e"/><circle cx="300.0" cy="16.0" r="3.8" fill="#2f6fb2"/><text x="308.0" y="20.0" font-size="11" fill="#222222" text-anchor="start">ten-frame template</text><path d="M445.0,12.2 L448.8,16.0 L445.0,19.8 L441.2,16.0 Z" fill="#c46a1e"/><text x="453.0" y="20.0" font-size="11" fill="#222222" text-anchor="start">random orientation</text><text x="350.0" y="374.0" font-size="11" fill="#222222" text-anchor="middle">recovery of exact K12 monitor-vector effect</text></svg>